<?xml version="1.0" encoding="UTF-8" standalone="no"?>
<svg
   viewBox="0 0 611.09332 572.44"
   height="572.44"
   width="611.09332"
   xml:space="preserve"
   id="svg2"
   version="1.1"
   sodipodi:docname="robot.svg"
   inkscape:version="1.2.2 (b0a8486541, 2022-12-01)"
   xmlns:inkscape="http://www.inkscape.org/namespaces/inkscape"
   xmlns:sodipodi="http://sodipodi.sourceforge.net/DTD/sodipodi-0.dtd"
   xmlns="http://www.w3.org/2000/svg"
   xmlns:svg="http://www.w3.org/2000/svg"
   xmlns:rdf="http://www.w3.org/1999/02/22-rdf-syntax-ns#"
   xmlns:cc="http://creativecommons.org/ns#"
   xmlns:dc="http://purl.org/dc/elements/1.1/"><sodipodi:namedview
     id="namedview326"
     pagecolor="#ffffff"
     bordercolor="#000000"
     borderopacity="0.25"
     inkscape:showpageshadow="2"
     inkscape:pageopacity="0.0"
     inkscape:pagecheckerboard="0"
     inkscape:deskcolor="#d1d1d1"
     showgrid="false"
     inkscape:zoom="0.70710678"
     inkscape:cx="-296.98485"
     inkscape:cy="103.9447"
     inkscape:window-width="1920"
     inkscape:window-height="986"
     inkscape:window-x="0"
     inkscape:window-y="20"
     inkscape:window-maximized="1"
     inkscape:current-layer="g12" /><metadata
     id="metadata8"><rdf:RDF><cc:Work
         rdf:about=""><dc:format>image/svg+xml</dc:format><dc:type
           rdf:resource="http://purl.org/dc/dcmitype/StillImage" /></cc:Work></rdf:RDF></metadata><defs
     id="defs6"><rect
       x="170.03517"
       y="124.64035"
       width="114.37752"
       height="25.572326"
       id="rect6411" /></defs><g
     transform="matrix(1.3333333,0,0,-1.3333333,0,572.44)"
     id="g10"><g
       transform="scale(0.1)"
       id="g12"><path
         id="path14"
         style="fill:#6ccb94;fill-opacity:1;fill-rule:nonzero;stroke:none"
         d="m 4095.36,3008.56 c 0,0 -168.65,676.56 -1190.46,1103.31 C 1883.1,4538.63 970.418,4143.1 762.09,3643.48 553.758,3143.87 772.012,2873.24 633.121,2446.49 494.234,2019.74 -220.035,1478.49 67.6602,822.742 355.348,166.992 1704.53,-20.3594 2795.78,114.949 3887.03,250.262 4740.18,1749.11 4095.36,3008.56" /><path
         id="path16"
         style="fill:#ececec;fill-opacity:1;fill-rule:nonzero;stroke:none"
         d="M 2118.6,73.6523 C 1206,73.6719 297.633,298.551 67.6602,822.742 20.1758,930.961 -0.0117188,1036.07 0,1138.05 c 0.0585938,515.97 517.156,952.12 633.121,1308.44 39.063,120.02 49.875,227.7 49.871,331.59 -0.004,128.96 -16.672,252.1 -16.652,385.8 0.019,141.55 18.742,294.93 95.75,479.6 146.176,350.56 639.04,649.85 1273.13,649.85 269.62,0 564.84,-54.14 869.68,-181.46 C 3926.71,3685.12 4095.36,3008.56 4095.36,3008.56 4249.64,2707.22 4318.17,2392.19 4318.2,2085.4 4318.31,1109.94 3625.94,217.891 2795.78,114.949 2576.85,87.8086 2347.64,73.6523 2118.6,73.6523" /><path
         id="path386"
         style="fill:#17282f;fill-opacity:1;fill-rule:nonzero;stroke:none;stroke-width:1.00077"
         d="m 78.206715,908.262 3884.702485,0.28548 c 0.4711,3e-5 1.5482,0.0888 1.8125,0.10488 0.3899,0.0237 0.9249,1.26197 1.6024,2.08089 1.1491,1.38893 2.3752,3.47368 3.0452,4.54918 1.2715,2.0408 3.847,4.33073 1.1402,4.32879 L 33.029559,916.79505 c -0.35397,-2.6e-4 1.425728,-4.68151 2.007219,-7.37751 0.169801,-0.78727 0.792104,-1.96244 43.169937,-1.15554"
         sodipodi:nodetypes="csssssssc" /><path
         id="path388"
         style="fill:#17282f;fill-opacity:1;fill-rule:nonzero;stroke:none"
         d="m 824.656,908.262 h 143.543 c 2.762,0 5,2.238 5,5 0,2.758 -2.238,5 -5,5 H 824.656 c -2.761,0 -5,-2.242 -5,-5 0,-2.762 2.239,-5 5,-5" /><path
         id="path390"
         style="fill:#17282f;fill-opacity:1;fill-rule:nonzero;stroke:none"
         d="M 2265.04,931.941 H 2112.25 V 2259.96 h 152.79 V 931.941" /><path
         id="path392"
         style="fill:#17282f;fill-opacity:1;fill-rule:nonzero;stroke:none"
         d="m 2265.04,931.941 v 5 H 2117.25 V 2254.96 h 142.79 V 931.941 h 5 v 5 -5 h 5 V 2259.96 c 0,1.32 -0.53,2.61 -1.46,3.54 -0.93,0.93 -2.22,1.46 -3.54,1.46 h -152.79 c -1.32,0 -2.61,-0.53 -3.54,-1.46 -0.93,-0.93 -1.46,-2.22 -1.46,-3.54 V 931.941 c 0,-1.312 0.53,-2.601 1.46,-3.531 0.93,-0.93 2.22,-1.469 3.54,-1.469 h 152.79 c 1.32,0 2.61,0.539 3.54,1.469 0.93,0.93 1.46,2.219 1.46,3.531 h -5" /><path
         id="path394"
         style="fill:#17282f;fill-opacity:1;fill-rule:nonzero;stroke:none"
         d="m 1662.41,1779.06 v -93.419 h -609.027 v 93.419 h 609.027" /><path
         id="path396"
         style="fill:#17282f;fill-opacity:1;fill-rule:nonzero;stroke:none"
         d="m 1662.41,1779.06 h -5 v -88.419 h -599.027 v 83.419 h 604.027 v 5 h -5 5 v 5 h -609.027 c -1.317,0 -2.606,-0.53 -3.535,-1.46 -0.934,-0.93 -1.465,-2.22 -1.465,-3.54 v -93.419 c 0,-1.321 0.531,-2.61 1.465,-3.539 0.929,-0.93 2.218,-1.461 3.535,-1.461 h 609.027 c 1.317,0 2.606,0.531 3.535,1.461 0.93,0.929 1.465,2.218 1.465,3.539 v 93.419 c 0,1.32 -0.535,2.61 -1.465,3.54 -0.929,0.93 -2.218,1.46 -3.535,1.46 v -5" /><path
         id="path398"
         style="fill:#17282f;fill-opacity:1;fill-rule:nonzero;stroke:none"
         d="m 1116.059,1727.68 h -93.434 v 373.73 h 93.434 v -373.73" /><path
         id="path400"
         style="fill:#17282f;fill-opacity:1;fill-rule:nonzero;stroke:none"
         d="m 1116.059,1727.68 v 5 h -88.434 v 363.73 h 83.434 v -368.73 h 5 v 5 -5 h 5 v 373.73 c 0,1.31 -0.536,2.6 -1.465,3.53 -0.934,0.93 -2.219,1.47 -3.535,1.47 h -93.434 c -1.316,0 -2.605,-0.54 -3.535,-1.47 -0.934,-0.93 -1.465,-2.22 -1.465,-3.53 v -373.73 c 0,-1.321 0.531,-2.61 1.465,-3.539 0.93,-0.93 2.219,-1.461 3.535,-1.461 h 93.434 c 1.316,0 2.601,0.531 3.535,1.461 0.929,0.929 1.465,2.218 1.465,3.539 h -5" /><path
         id="path402"
         style="fill:#ffffff;fill-opacity:1;fill-rule:nonzero;stroke:none"
         d="m 1154.926,1726.18 c 0,-47.231 -38.348,-85.578 -85.586,-85.578 -2.82,0 -5.594,0.148 -8.36,0.367 -43.351,4.273 -77.222,40.801 -77.222,85.211 0,47.24 38.344,85.59 85.582,85.59 39.89,0 73.441,-27.37 82.922,-64.29 1.758,-6.808 2.664,-13.949 2.664,-21.3" /><path
         id="path404"
         style="fill:#17282f;fill-opacity:1;fill-rule:nonzero;stroke:none"
         d="m 1154.926,1726.18 h -5 c 0,-22.25 -9.02,-42.36 -23.613,-56.969 -14.606,-14.59 -34.719,-23.609 -56.973,-23.609 -2.633,0 -5.277,0.136 -7.973,0.347 l -0.387,-4.98 0.489,4.972 c -40.805,4.02 -72.723,38.43 -72.711,80.239 0,22.25 9.015,42.37 23.613,56.97 14.602,14.6 34.715,23.62 56.969,23.62 37.551,0.01 69.156,-25.79 78.082,-60.532 1.648,-6.406 2.504,-13.117 2.504,-20.058 h 5 5 c 0,7.761 -0.957,15.32 -2.821,22.55 -10.039,39.08 -45.535,68.03 -87.765,68.04 -50.004,-0.01 -90.578,-40.58 -90.582,-90.59 0.012,-47.008 35.84,-85.668 81.73,-90.192 l 0.106,-0.01 c 2.836,-0.218 5.742,-0.378 8.746,-0.378 50.008,0 90.578,40.578 90.586,90.578 h -5" /><path
         id="path406"
         style="fill:#ffffff;fill-opacity:1;fill-rule:nonzero;stroke:none"
         d="m 1161.164,2043.85 c 0,-47.24 -38.344,-85.59 -85.586,-85.59 -2.82,0 -5.59,0.17 -8.359,0.38 -43.348,4.26 -77.223,40.79 -77.223,85.21 0,47.24 38.348,85.58 85.582,85.58 39.895,0 73.442,-27.37 82.926,-64.27 1.754,-6.82 2.66,-13.96 2.66,-21.31" /><path
         id="path408"
         style="fill:#17282f;fill-opacity:1;fill-rule:nonzero;stroke:none"
         d="m 1161.164,2043.85 h -5 c 0,-22.25 -9.016,-42.37 -23.613,-56.97 -14.602,-14.6 -34.719,-23.61 -56.973,-23.62 -2.625,0 -5.262,0.16 -7.973,0.37 l -0.386,-4.99 0.488,4.98 c -40.805,4.01 -72.719,38.42 -72.711,80.23 0,22.26 9.02,42.37 23.613,56.97 14.606,14.6 34.719,23.61 56.969,23.61 37.555,0.02 69.16,-25.79 78.082,-60.52 1.649,-6.4 2.504,-13.12 2.504,-20.06 h 5 5 c 0,7.76 -0.961,15.32 -2.816,22.55 -10.043,39.08 -45.539,68.02 -87.77,68.03 -50.004,0 -90.574,-40.57 -90.582,-90.58 0.012,-47.02 35.84,-85.67 81.734,-90.18 l 0.102,-0.01 c 2.828,-0.22 5.727,-0.4 8.746,-0.4 50.008,0.01 90.582,40.59 90.586,90.59 h -5" /><path
         id="path410"
         style="fill:#17282f;fill-opacity:1;fill-rule:nonzero;stroke:none"
         d="m 1340.453,2228.17 -124.473,-67.04 -25.781,47.88 124.473,67.04 25.781,-47.88" /><path
         id="path412"
         style="fill:#17282f;fill-opacity:1;fill-rule:nonzero;stroke:none"
         d="m 1340.453,2228.17 -2.371,4.41 -120.07,-64.67 -21.039,39.06 115.668,62.3 23.41,-43.47 4.402,2.37 -2.371,4.41 2.371,-4.41 4.402,2.38 -25.781,47.87 c -0.625,1.16 -1.707,2.04 -2.969,2.42 -1.257,0.37 -2.644,0.23 -3.804,-0.39 l -124.473,-67.04 c -2.433,-1.31 -3.344,-4.34 -2.031,-6.78 l 25.781,-47.87 c 0.621,-1.16 1.703,-2.04 2.965,-2.42 1.262,-0.37 2.648,-0.23 3.809,0.39 l 124.472,67.04 c 2.43,1.31 3.34,4.34 2.031,6.78 l -4.402,-2.38" /><path
         id="path414"
         style="fill:#ffffff;fill-opacity:1;fill-rule:nonzero;stroke:none"
         d="m 1360.945,2222.76 -61.382,-33.05 -39.165,72.72 61.383,33.06 c 20.082,10.82 45.129,3.31 55.946,-16.78 10.812,-20.08 3.3,-45.12 -16.782,-55.95" /><path
         id="path416"
         style="fill:#17282f;fill-opacity:1;fill-rule:nonzero;stroke:none"
         d="m 1360.945,2222.76 -2.371,4.41 -56.98,-30.69 -34.422,63.92 56.98,30.69 c 5.493,2.95 11.368,4.35 17.18,4.35 12.934,-0.01 25.434,-6.91 31.992,-19.1 2.953,-5.49 4.344,-11.36 4.348,-17.17 -0.01,-12.94 -6.914,-25.44 -19.098,-32 l 2.371,-4.41 2.371,-4.4 c 15.524,8.37 24.36,24.34 24.356,40.81 0,7.41 -1.789,14.95 -5.543,21.91 -8.363,15.53 -24.324,24.37 -40.797,24.36 -7.414,0 -14.953,-1.79 -21.926,-5.55 l -61.379,-33.06 c -2.429,-1.3 -3.339,-4.34 -2.031,-6.77 l 39.164,-72.72 c 0.625,-1.16 1.707,-2.04 2.969,-2.42 1.258,-0.38 2.644,-0.24 3.805,0.39 l 61.382,33.05 -2.371,4.4" /><path
         id="path418"
         style="fill:#17282f;fill-opacity:1;fill-rule:nonzero;stroke:none"
         d="m 1092.199,2531.08 -4.359,-253.64 -54.371,0.84 4.367,253.64 54.363,-0.84" /><path
         id="path420"
         style="fill:#17282f;fill-opacity:1;fill-rule:nonzero;stroke:none"
         d="m 1092.199,2531.08 -5,0.08 -4.273,-248.64 -44.371,0.68 4.191,243.64 49.375,-0.76 0.078,5 -5,0.08 5,-0.08 0.078,4.99 -54.367,0.84 c -2.758,0.05 -5.027,-2.15 -5.074,-4.91 l -4.367,-253.63 c -0.024,-1.34 0.48,-2.61 1.41,-3.56 0.926,-0.96 2.18,-1.51 3.512,-1.53 l 54.371,-0.84 c 2.761,-0.04 5.027,2.16 5.078,4.92 l 4.359,253.63 c 0.024,1.34 -0.476,2.6 -1.406,3.56 -0.93,0.96 -2.18,1.5 -3.516,1.52 l -0.078,-4.99" /><path
         id="path422"
         style="fill:#ffffff;fill-opacity:1;fill-rule:nonzero;stroke:none"
         d="m 1106.91,2546.33 -1.07,-69.71 -82.59,1.27 1.074,69.72 c 0.348,22.8 19.121,41 41.93,40.65 22.805,-0.35 41.008,-19.12 40.656,-41.93" /><path
         id="path424"
         style="fill:#17282f;fill-opacity:1;fill-rule:nonzero;stroke:none"
         d="m 1106.91,2546.33 -5,0.08 -0.996,-64.71 -72.59,1.11 1,64.72 c 0.297,19.85 16.496,35.74 36.278,35.74 l 0.57,-0.01 v 0 c 19.855,-0.3 35.746,-16.49 35.742,-36.28 l -0.01,-0.58 5,-0.07 5,-0.08 0.01,0.73 c 0,25.25 -20.262,45.89 -45.59,46.28 v 0 l -0.73,0.01 c -25.243,-0.01 -45.887,-20.26 -46.278,-45.59 l -1.074,-69.71 c -0.02,-1.32 0.492,-2.61 1.41,-3.56 0.918,-0.94 2.195,-1.5 3.512,-1.52 l 82.59,-1.27 c 2.761,-0.04 5.031,2.16 5.074,4.93 l 1.074,69.7 -5,0.08" /><path
         id="path426"
         style="fill:#17282f;fill-opacity:1;fill-rule:nonzero;stroke:none"
         d="m 1295.379,2439.08 -119.277,-223.87 -48.032,25.47 119.27,223.88 48.039,-25.48" /><path
         id="path428"
         style="fill:#17282f;fill-opacity:1;fill-rule:nonzero;stroke:none"
         d="m 1295.379,2439.08 -4.414,2.35 -116.93,-219.47 -39.199,20.79 114.57,215.06 43.629,-23.14 2.344,4.41 -4.414,2.35 4.414,-2.35 2.344,4.42 -48.039,25.48 c -2.438,1.29 -5.457,0.37 -6.754,-2.07 l -119.274,-223.87 c -0.629,-1.18 -0.758,-2.54 -0.367,-3.82 0.391,-1.27 1.258,-2.33 2.438,-2.95 l 48.031,-25.48 c 2.441,-1.29 5.457,-0.37 6.758,2.07 l 119.277,223.87 c 0.625,1.18 0.758,2.54 0.367,3.82 -0.39,1.27 -1.258,2.32 -2.437,2.95 l -2.344,-4.42" /><path
         id="path430"
         style="fill:#ffffff;fill-opacity:1;fill-rule:nonzero;stroke:none"
         d="m 1315.418,2445.98 -32.672,-61.59 -72.969,38.71 32.672,61.59 c 10.688,20.15 35.688,27.81 55.84,17.13 20.145,-10.7 27.816,-35.7 17.129,-55.84" /><path
         id="path432"
         style="fill:#17282f;fill-opacity:1;fill-rule:nonzero;stroke:none"
         d="m 1315.418,2445.98 -4.418,2.34 -30.328,-57.17 -64.133,34.02 30.328,57.18 c 6.516,12.29 19.086,19.28 32.106,19.29 5.734,0 11.539,-1.36 16.972,-4.24 v 0 c 12.293,-6.52 19.289,-19.09 19.297,-32.11 0,-5.73 -1.359,-11.53 -4.242,-16.97 l 4.418,-2.34 4.418,-2.35 c 3.66,6.9 5.406,14.35 5.406,21.66 0,16.58 -8.945,32.63 -24.609,40.94 v 0 c -6.903,3.67 -14.344,5.41 -21.66,5.41 -16.578,0.01 -32.625,-8.94 -40.942,-24.61 l -32.672,-61.59 c -1.293,-2.44 -0.363,-5.47 2.075,-6.76 l 72.968,-38.71 c 1.164,-0.62 2.551,-0.75 3.813,-0.36 1.258,0.38 2.332,1.27 2.949,2.43 l 32.672,61.59 -4.418,2.35" /><path
         id="path434"
         style="fill:#17282f;fill-opacity:1;fill-rule:nonzero;stroke:none"
         d="m 899.367,2440.07 118.227,-224.43 -48.059,-25.43 -118.23,224.43 48.062,25.43" /><path
         id="path436"
         style="fill:#17282f;fill-opacity:1;fill-rule:nonzero;stroke:none"
         d="m 899.367,2440.07 -4.422,-2.33 115.899,-220.02 -39.223,-20.75 -113.566,215.58 43.652,23.1 -2.34,4.42 -4.422,-2.33 4.422,2.33 -2.34,4.42 -48.058,-25.43 c -2.442,-1.29 -3.371,-4.31 -2.086,-6.75 l 118.226,-224.43 c 0.625,-1.19 1.672,-2.06 2.95,-2.45 1.277,-0.4 2.632,-0.27 3.812,0.36 l 48.063,25.43 c 2.441,1.29 3.371,4.3 2.086,6.75 L 903.793,2442.4 c -0.625,1.18 -1.672,2.05 -2.949,2.45 -1.278,0.39 -2.633,0.26 -3.817,-0.36 l 2.34,-4.42" /><path
         id="path438"
         style="fill:#ffffff;fill-opacity:1;fill-rule:nonzero;stroke:none"
         d="m 1010.262,2277.37 c -4.942,28.95 -32.414,48.41 -61.36,43.47 -28.941,-4.94 -48.402,-32.41 -43.461,-61.36 4.938,-28.94 32.407,-48.4 61.356,-43.46 28.941,4.94 48.406,32.41 43.465,61.35" /><path
         id="path440"
         style="fill:#17282f;fill-opacity:1;fill-rule:nonzero;stroke:none"
         d="m 1010.262,2277.37 4.929,0.85 c -4.851,28.35 -29.429,48.39 -57.277,48.39 -3.254,0 -6.547,-0.28 -9.851,-0.84 v 0 c -28.356,-4.85 -48.387,-29.43 -48.387,-57.28 0,-3.25 0.273,-6.54 0.836,-9.85 4.847,-28.35 29.426,-48.39 57.273,-48.39 3.25,0 6.543,0.27 9.852,0.84 28.355,4.85 48.39,29.43 48.39,57.28 0,3.25 -0.273,6.54 -0.836,9.85 l -4.929,-0.85 -4.93,-0.84 c 0.469,-2.75 0.695,-5.47 0.695,-8.16 0,-23.03 -16.593,-43.43 -40.074,-47.42 -2.75,-0.47 -5.476,-0.7 -8.168,-0.7 -23.023,0 -43.422,16.59 -47.414,40.07 -0.469,2.75 -0.695,5.48 -0.695,8.17 0,23.03 16.59,43.42 40.07,47.42 v 0 c 2.746,0.47 5.477,0.7 8.168,0.7 23.024,0 43.422,-16.6 47.418,-40.08 l 4.93,0.84" /><path
         id="path442"
         style="fill:#ffffff;fill-opacity:1;fill-rule:nonzero;stroke:none"
         d="m 1115.508,2323.52 c 0,29.36 -23.805,53.17 -53.172,53.17 -29.359,0 -53.168,-23.81 -53.168,-53.17 0,-29.37 23.809,-53.17 53.168,-53.17 29.367,0 53.172,23.8 53.172,53.17" /><path
         id="path444"
         style="fill:#17282f;fill-opacity:1;fill-rule:nonzero;stroke:none"
         d="m 1115.508,2323.52 h 4.996 c 0,32.13 -26.039,58.17 -58.168,58.17 -32.125,0 -58.164,-26.04 -58.168,-58.17 0,-32.13 26.047,-58.16 58.168,-58.17 32.129,0.01 58.168,26.04 58.168,58.17 h -4.996 -5 c 0,-13.32 -5.387,-25.33 -14.11,-34.06 -8.734,-8.72 -20.742,-14.1 -34.062,-14.11 -13.316,0.01 -25.324,5.39 -34.059,14.11 -8.726,8.73 -14.105,20.74 -14.109,34.06 0,13.31 5.383,25.33 14.109,34.06 8.735,8.73 20.746,14.11 34.059,14.11 13.316,0 25.328,-5.38 34.062,-14.11 8.723,-8.73 14.106,-20.75 14.11,-34.06 h 5" /><path
         id="path446"
         style="fill:#ffffff;fill-opacity:1;fill-rule:nonzero;stroke:none"
         d="m 1235.949,2292.8 c 4.457,29.03 -15.453,56.18 -44.472,60.64 -29.028,4.46 -56.172,-15.45 -60.629,-44.47 -4.465,-29.03 15.449,-56.18 44.472,-60.64 29.024,-4.46 56.168,15.45 60.629,44.47" /><path
         id="path448"
         style="fill:#17282f;fill-opacity:1;fill-rule:nonzero;stroke:none"
         d="m 1235.949,2292.8 4.942,-0.76 c 0.461,2.99 0.683,5.97 0.683,8.9 0,28.25 -20.582,53.01 -49.336,57.44 -2.992,0.46 -5.968,0.68 -8.91,0.68 -28.246,0 -52.996,-20.58 -57.422,-49.33 -0.461,-2.99 -0.683,-5.97 -0.683,-8.91 0,-28.24 20.578,-53 49.336,-57.43 2.992,-0.46 5.968,-0.68 8.906,-0.68 28.246,0 52.996,20.58 57.426,49.33 l -4.942,0.76 -4.941,0.76 c -3.653,-23.81 -24.192,-40.85 -47.543,-40.85 -2.434,0 -4.899,0.18 -7.387,0.56 -23.812,3.65 -40.855,24.2 -40.855,47.55 0,2.43 0.183,4.9 0.566,7.39 3.649,23.81 24.188,40.85 47.539,40.85 2.438,0 4.902,-0.18 7.391,-0.56 23.808,-3.65 40.855,-24.2 40.855,-47.56 0,-2.43 -0.183,-4.89 -0.566,-7.38 l 4.941,-0.76" /><path
         id="path450"
         style="fill:#ffffff;fill-opacity:1;fill-rule:nonzero;stroke:none"
         d="m 904.922,2460.52 32.605,-61.63 -73.007,-38.63 -32.61,61.63 c -10.664,20.16 -2.969,45.15 17.195,55.82 20.161,10.66 45.153,2.96 55.817,-17.19" /><path
         id="path452"
         style="fill:#17282f;fill-opacity:1;fill-rule:nonzero;stroke:none"
         d="m 904.922,2460.52 -4.422,-2.34 30.27,-57.21 -64.168,-33.95 -30.27,57.2 v 0 c -2.867,5.43 -4.219,11.22 -4.223,16.95 0.008,13.03 7.02,25.61 19.332,32.12 5.426,2.87 11.215,4.22 16.942,4.22 13.027,-0.01 25.605,-7.02 32.117,-19.33 l 4.422,2.34 4.418,2.34 c -8.305,15.69 -24.363,24.65 -40.957,24.65 -7.305,0 -14.731,-1.74 -21.617,-5.38 -15.692,-8.31 -24.664,-24.37 -24.657,-40.96 v 0 c 0,-7.31 1.739,-14.73 5.383,-21.62 v 0 l 32.61,-61.62 c 1.289,-2.44 4.316,-3.38 6.753,-2.08 l 73.008,38.62 c 1.164,0.61 2.055,1.69 2.442,2.95 0.386,1.25 0.258,2.64 -0.36,3.81 l -32.605,61.63 -4.418,-2.34" /><path
         id="path454"
         style="fill:#ffffff;fill-opacity:1;fill-rule:nonzero;stroke:none"
         d="m 1225.727,2174.66 c 0,-82.88 -67.274,-150.15 -150.149,-150.15 -4.949,0 -9.808,0.29 -14.668,0.66 -76.055,7.47 -135.472,71.56 -135.472,149.49 0,82.87 67.269,150.15 150.14,150.15 69.981,0 128.844,-48.03 145.473,-112.78 3.086,-11.96 4.676,-24.48 4.676,-37.37" /><path
         id="path456"
         style="fill:#17282f;fill-opacity:1;fill-rule:nonzero;stroke:none"
         d="m 1225.727,2174.66 h -5 c 0,-40.07 -16.25,-76.33 -42.532,-102.62 -26.289,-26.28 -62.547,-42.52 -102.617,-42.53 -4.758,0 -9.488,0.28 -14.285,0.64 l -0.383,-4.98 0.488,4.97 c -73.507,7.22 -130.972,69.19 -130.96,144.52 0,40.07 16.25,76.32 42.531,102.61 26.285,26.29 62.543,42.53 102.609,42.54 67.641,0.01 124.559,-46.45 140.633,-109.02 v -0.01 c 2.977,-11.54 4.516,-23.64 4.516,-36.12 h 5 5 c 0,13.3 -1.641,26.24 -4.832,38.62 v 0 c -17.188,66.92 -77.997,116.51 -150.317,116.53 -85.637,-0.01 -155.137,-69.51 -155.14,-155.15 0.007,-80.53 61.386,-146.75 139.984,-154.47 l 0.109,-0.01 c 4.918,-0.37 9.907,-0.67 15.047,-0.67 85.645,0.01 155.141,69.5 155.149,155.15 h -5" /><path
         id="path458"
         style="fill:#ffffff;fill-opacity:1;fill-rule:nonzero;stroke:none"
         d="m 1225.727,2174.66 c 0,-82.88 -67.274,-150.15 -150.149,-150.15 -4.949,0 -9.808,0.29 -14.668,0.66 -3.082,11.95 -4.672,24.47 -4.672,37.37 0,82.87 67.274,150.15 150.145,150.15 4.953,0 9.812,-0.29 14.668,-0.66 3.086,-11.96 4.676,-24.48 4.676,-37.37" /><path
         id="path460"
         style="fill:#17282f;fill-opacity:1;fill-rule:nonzero;stroke:none"
         d="m 1225.727,2174.66 h -5 c 0,-40.07 -16.25,-76.33 -42.532,-102.62 -26.289,-26.28 -62.547,-42.52 -102.617,-42.53 -4.758,0 -9.488,0.28 -14.285,0.64 l -0.383,-4.98 4.844,1.25 c -2.977,11.53 -4.516,23.63 -4.516,36.12 0,40.07 16.25,76.33 42.532,102.61 26.289,26.29 62.546,42.53 102.613,42.54 4.762,0 9.488,-0.28 14.289,-0.64 l 0.379,4.98 -4.84,-1.25 c 2.977,-11.54 4.516,-23.64 4.516,-36.12 h 5 5 c 0,13.3 -1.641,26.24 -4.832,38.62 -0.536,2.08 -2.325,3.57 -4.461,3.74 -4.918,0.37 -9.907,0.67 -15.051,0.67 -85.637,-0.01 -155.141,-69.51 -155.145,-155.15 0,-13.31 1.645,-26.25 4.832,-38.62 0.535,-2.08 2.321,-3.57 4.461,-3.74 4.918,-0.37 9.907,-0.67 15.047,-0.67 85.645,0.01 155.141,69.5 155.149,155.15 h -5" /><path
         id="path462"
         style="fill:#ffffff;fill-opacity:1;fill-rule:nonzero;stroke:none"
         d="m 1986.31,1769.72 c 0,-111.798 -90.63,-202.431 -202.44,-202.431 -111.796,0 -202.432,90.633 -202.432,202.431 0,111.8 90.636,202.44 202.432,202.44 111.81,0 202.44,-90.64 202.44,-202.44" /><path
         id="path464"
         style="fill:#17282f;fill-opacity:1;fill-rule:nonzero;stroke:none"
         d="m 1986.31,1769.72 h -5 c 0,-54.54 -22.09,-103.861 -57.83,-139.611 -35.74,-35.73 -85.07,-57.82 -139.61,-57.82 -54.53,0 -103.858,22.09 -139.604,57.82 -35.739,35.75 -57.825,85.071 -57.828,139.611 0,54.54 22.089,103.87 57.828,139.61 35.746,35.74 85.074,57.83 139.604,57.83 54.54,0 103.87,-22.09 139.61,-57.83 35.74,-35.74 57.83,-85.07 57.83,-139.61 h 5 5 c 0,114.57 -92.87,207.44 -207.44,207.44 -114.561,0 -207.429,-92.87 -207.432,-207.44 0,-114.56 92.871,-207.431 207.432,-207.431 114.57,0 207.44,92.871 207.44,207.431 h -5" /><path
         id="path466"
         style="fill:#17282f;fill-opacity:1;fill-rule:nonzero;stroke:none"
         d="m 1881.98,1769.72 c 0,-54.181 -43.93,-98.111 -98.11,-98.111 -54.18,0 -98.1,43.93 -98.1,98.111 0,54.18 43.92,98.1 98.1,98.1 54.18,0 98.11,-43.92 98.11,-98.1" /><path
         id="path468"
         style="fill:#17282f;fill-opacity:1;fill-rule:nonzero;stroke:none"
         d="m 1881.98,1769.72 h -5 c -0.01,-25.728 -10.42,-48.97 -27.27,-65.841 -16.87,-16.848 -40.11,-27.27 -65.84,-27.27 -25.72,0 -48.97,10.422 -65.83,27.27 -16.86,16.871 -27.27,40.113 -27.27,65.841 0,25.72 10.41,48.97 27.27,65.83 16.86,16.86 40.11,27.27 65.83,27.27 25.73,0 48.97,-10.41 65.84,-27.27 16.85,-16.86 27.26,-40.11 27.27,-65.83 h 5 5 c -0.01,56.94 -46.16,103.1 -103.11,103.1 -56.94,0 -103.097,-46.16 -103.1,-103.1 0,-56.939 46.16,-103.099 103.1,-103.111 56.95,0.012 103.1,46.172 103.11,103.111 h -5" /><path
         id="path470"
         style="fill:#ffffff;fill-opacity:1;fill-rule:nonzero;stroke:none"
         d="m 1749.08,913.262 h 897.98 l 12.98,60.75 c 10.79,50.476 -21.15,100.07 -71.51,111.398 -127.36,28.641 -402.94,38.969 -402.94,38.969 -66.37,-2.109 -251.16,-10.348 -378.54,-39.098 -50.13,-11.312 -81.69,-61 -70.95,-111.269 l 12.98,-60.75" /><path
         id="path472"
         style="fill:#17282f;fill-opacity:1;fill-rule:nonzero;stroke:none"
         d="m 1749.08,913.262 v -5 h 897.98 c 2.35,0 4.4,1.66 4.89,3.957 l 12.98,60.75 c 1.49,6.961 2.21,13.922 2.21,20.769 0,45.422 -31.44,86.184 -77.51,96.551 -64.25,14.441 -165.03,24.152 -249.97,30.332 -84.9,6.168 -153.84,8.75 -153.88,8.75 h -0.35 c -66.52,-2.121 -251.36,-10.312 -379.48,-39.211 -45.85,-10.359 -76.95,-51.148 -76.95,-96.379 0,-6.871 0.72,-13.84 2.21,-20.812 l 12.99,-60.75 c 0.49,-2.297 2.53,-3.957 4.88,-3.957 v 5 l 4.89,1.047 -12.98,60.75 c -1.34,6.281 -1.99,12.55 -1.99,18.722 0.01,40.641 27.96,77.34 69.15,86.629 126.65,28.602 311.39,36.879 377.6,38.969 l -0.16,5 -0.18,-5 c 0.04,0 17.18,-0.641 44.98,-2.059 83.33,-4.218 262.31,-15.449 357.05,-36.789 41.44,-9.312 69.69,-46 69.7,-86.793 0,-6.148 -0.65,-12.406 -1.99,-18.679 l -12.14,-56.797 h -893.93 v -5 l 4.89,1.047 -4.89,-1.047" /><path
         id="path474"
         style="fill:#6ccb94;fill-opacity:1;fill-rule:nonzero;stroke:none"
         d="m 2414.25,1109.48 c -115.04,10.629 -228.66,14.899 -228.66,14.899 -41.79,-1.328 -130.55,-5.09 -222.35,-14.879 26.79,-91.5 117.57,-158.859 225.51,-158.859 107.92,0 198.7,67.351 225.5,158.839" /><path
         id="path476"
         style="fill:#17282f;fill-opacity:1;fill-rule:nonzero;stroke:none"
         d="m 2414.25,1109.48 0.46,4.981 c -115.21,10.641 -228.88,14.91 -228.93,14.91 h -0.35 c -41.87,-1.332 -130.72,-5.09 -222.72,-14.891 -1.48,-0.16 -2.81,-0.96 -3.63,-2.199 -0.82,-1.23 -1.06,-2.761 -0.64,-4.179 27.5,-93.821 120.29,-162.461 230.31,-162.461 110,0 202.79,68.629 230.3,162.441 0.42,1.438 0.18,2.969 -0.66,4.207 -0.85,1.25 -2.19,2.031 -3.68,2.172 l -0.46,-4.981 -4.8,1.411 c -26.09,-89.18 -114.86,-155.262 -220.7,-155.25 -105.86,-0.012 -194.64,66.078 -220.72,155.269 l -4.79,-1.41 0.52,-4.969 c 91.61,9.77 180.27,13.52 221.99,14.848 l -0.16,5 -0.18,-5 c 0.02,0 7.07,-0.27 19.51,-0.828 37.3,-1.699 122.72,-6.09 208.87,-14.051 l 0.46,4.98 -4.8,1.411 4.8,-1.411" /><path
         id="path478"
         style="fill:#17282f;fill-opacity:1;fill-rule:nonzero;stroke:none"
         d="m 2638.54,1706.191 55.87,74.889 488.12,-364.221 -55.87,-74.89 -488.12,364.222" /><path
         id="path480"
         style="fill:#17282f;fill-opacity:1;fill-rule:nonzero;stroke:none"
         d="m 2638.54,1706.191 4.01,-2.992 52.88,70.881 480.1,-358.24 -49.89,-66.871 -484.11,361.23 -2.99,-4.008 4.01,-2.992 -4.01,2.992 -2.99,-4 488.12,-364.222 c 1.05,-0.789 2.4,-1.129 3.71,-0.938 1.3,0.188 2.5,0.899 3.29,1.949 l 55.86,74.891 c 1.66,2.211 1.2,5.34 -1.01,6.988 L 2697.4,1785.08 c -2.21,1.65 -5.34,1.2 -7,-1.01 l -55.87,-74.89 c -1.65,-2.211 -1.2,-5.34 1.02,-6.989 l 2.99,4" /><path
         id="path482"
         style="fill:#17282f;fill-opacity:1;fill-rule:nonzero;stroke:none"
         d="m 3107.16,1420.648 74.88,-55.878 -223.51,-299.528 -74.88,55.86 223.51,299.546" /><path
         id="path484"
         style="fill:#17282f;fill-opacity:1;fill-rule:nonzero;stroke:none"
         d="m 3107.16,1420.648 -2.99,-4.007 70.87,-52.891 -217.52,-291.52 -66.87,49.891 220.51,295.539 -4,2.988 -2.99,-4.007 2.99,4.007 -4.01,2.993 -223.51,-299.551 c -0.78,-1.051 -1.13,-2.399 -0.94,-3.699 0.19,-1.309 0.9,-2.512 1.96,-3.289 l 74.88,-55.872 c 2.22,-1.648 5.35,-1.199 7,1.02 l 223.51,299.531 c 1.65,2.211 1.19,5.34 -1.02,6.989 l -74.88,55.878 c -1.06,0.793 -2.41,1.133 -3.71,0.942 -1.31,-0.192 -2.5,-0.899 -3.29,-1.949 l 4.01,-2.993" /><path
         id="path486"
         style="fill:#ffffff;fill-opacity:1;fill-rule:nonzero;stroke:none"
         d="m 2341.9,1445.09 c 28.24,37.851 81.92,45.648 119.78,17.398 2.25,-1.687 4.38,-3.468 6.47,-5.289 32.2,-29.347 37.49,-78.879 10.93,-114.48 -28.24,-37.867 -81.91,-45.66 -119.78,-17.41 -31.96,23.851 -42.48,65.863 -28,101.113 2.66,6.508 6.21,12.769 10.6,18.668" /><path
         id="path488"
         style="fill:#17282f;fill-opacity:1;fill-rule:nonzero;stroke:none"
         d="m 2341.9,1445.09 4.01,-2.988 c 15.81,21.187 40.06,32.367 64.66,32.378 16.77,-0.011 33.65,-5.199 48.12,-16 2.11,-1.582 4.14,-3.269 6.17,-5.05 l 3.29,3.769 -3.37,-3.699 c 17.24,-15.711 26.29,-37.559 26.29,-59.668 0,-16.773 -5.2,-33.652 -16,-48.121 -15.81,-21.199 -40.06,-32.379 -64.65,-32.379 -16.78,0 -33.66,5.199 -48.13,15.988 -21.19,15.821 -32.36,40.09 -32.37,64.692 0,10.328 1.97,20.699 6,30.508 2.51,6.121 5.84,12.011 9.99,17.582 l -4.01,2.988 -4.01,2.992 c -4.64,-6.23 -8.39,-12.863 -11.22,-19.773 -4.53,-11.028 -6.75,-22.7 -6.75,-34.297 -0.01,-27.602 12.57,-54.93 36.39,-72.703 16.24,-12.118 35.27,-17.989 54.11,-17.977 27.6,-0.012 54.9,12.578 72.67,36.398 12.12,16.239 17.98,35.27 17.98,54.102 0,24.828 -10.17,49.398 -29.55,67.059 l -0.08,0.07 c -2.14,1.879 -4.37,3.738 -6.77,5.531 -16.24,12.129 -35.27,17.988 -54.1,17.988 -27.6,0 -54.91,-12.589 -72.68,-36.398 l 4.01,-2.992" /><path
         id="path490"
         style="fill:#ffffff;fill-opacity:1;fill-rule:nonzero;stroke:none"
         d="m 2881.6,1205.809 c 26.36,39.203 79.57,49.632 118.78,23.273 2.34,-1.57 4.55,-3.25 6.73,-4.98 33.6,-27.723 41.32,-76.93 16.54,-113.801 -26.36,-39.199 -79.58,-49.629 -118.77,-23.27 -33.11,22.258 -45.68,63.688 -32.95,99.61 2.34,6.64 5.57,13.07 9.67,19.168" /><path
         id="path492"
         style="fill:#17282f;fill-opacity:1;fill-rule:nonzero;stroke:none"
         d="m 2881.6,1205.809 4.15,-2.789 c 15.56,23.128 41.02,35.609 66.97,35.621 15.47,0 31.07,-4.43 44.87,-13.711 2.18,-1.461 4.28,-3.059 6.41,-4.739 l 3.11,3.911 -3.19,-3.852 c 19.07,-15.73 29.29,-38.82 29.29,-62.289 0,-15.461 -4.43,-31.063 -13.71,-44.871 -15.55,-23.129 -41.01,-35.61 -66.97,-35.61 -15.47,0 -31.07,4.43 -44.86,13.7 -23.14,15.562 -35.62,41.039 -35.62,67.011 0,9.008 1.5,18.071 4.59,26.778 2.2,6.242 5.24,12.293 9.11,18.051 l -4.15,2.789 -4.15,2.793 c -4.33,-6.442 -7.75,-13.25 -10.24,-20.293 -3.47,-9.797 -5.16,-20 -5.16,-30.118 -0.01,-29.14 14.03,-57.82 40.04,-75.312 15.48,-10.41 33.06,-15.41 50.44,-15.399 29.14,-0.011 57.79,14.04 75.27,40.032 10.41,15.488 15.41,33.078 15.41,50.449 0,26.359 -11.48,52.309 -32.92,70 l -0.07,0.059 c -2.24,1.769 -4.55,3.531 -7.06,5.218 -15.47,10.403 -33.06,15.403 -50.44,15.403 -29.13,0.01 -57.79,-14.051 -75.27,-40.039 l 4.15,-2.793" /><path
         id="path494"
         style="fill:#17282f;fill-opacity:1;fill-rule:nonzero;stroke:none"
         d="m 2629.97,1152.879 140.7,-13.82 -5.31,-54.11 -140.7,13.821 5.31,54.109" /><path
         id="path496"
         style="fill:#17282f;fill-opacity:1;fill-rule:nonzero;stroke:none"
         d="m 2629.97,1152.879 -0.49,-4.969 135.73,-13.328 -4.34,-44.16 -130.75,12.84 4.83,49.129 -4.98,0.488 -0.49,-4.969 0.49,4.969 -4.97,0.492 -5.32,-54.109 c -0.13,-1.313 0.28,-2.641 1.11,-3.66 0.84,-1.02 2.07,-1.68 3.38,-1.813 l 140.7,-13.809 c 1.31,-0.128 2.64,0.27 3.66,1.11 1.02,0.832 1.68,2.058 1.81,3.371 l 5.31,54.121 c 0.27,2.738 -1.74,5.188 -4.49,5.457 l -140.7,13.82 c -2.75,0.27 -5.19,-1.738 -5.46,-4.488 l 4.97,-0.492" /><path
         id="path498"
         style="fill:#ffffff;fill-opacity:1;fill-rule:nonzero;stroke:none"
         d="m 2615.98,1168.801 69.39,-6.821 -8.08,-82.191 -69.38,6.813 c -22.7,2.23 -39.3,22.429 -37.07,45.14 2.23,22.688 22.44,39.289 45.14,37.059" /><path
         id="path500"
         style="fill:#17282f;fill-opacity:1;fill-rule:nonzero;stroke:none"
         d="m 2615.98,1168.801 -0.48,-4.981 64.4,-6.32 -7.09,-72.25 -64.41,6.332 c -18.75,1.828 -32.76,17.637 -32.76,36.066 0,1.192 0.06,2.391 0.18,3.602 1.83,18.738 17.65,32.75 36.08,32.75 1.19,0 2.39,-0.059 3.59,-0.18 l 0.49,4.981 0.49,4.98 c -1.53,0.149 -3.06,0.219 -4.57,0.219 -23.55,0 -43.67,-17.859 -46.03,-41.77 -0.15,-1.539 -0.23,-3.07 -0.23,-4.582 0,-23.546 17.87,-43.668 41.78,-46.019 l 69.38,-6.82 c 2.75,-0.27 5.2,1.742 5.47,4.492 l 8.07,82.191 c 0.13,1.317 -0.27,2.649 -1.11,3.668 -0.83,1.012 -2.06,1.672 -3.37,1.801 l -69.39,6.82 -0.49,-4.98" /><path
         id="path502"
         style="fill:#ffffff;fill-opacity:1;fill-rule:nonzero;stroke:none"
         d="m 2755.04,1133.281 c 46.24,68.77 139.6,87.071 208.38,40.821 4.11,-2.75 7.98,-5.704 11.81,-8.723 58.94,-48.637 72.49,-134.981 29.01,-199.649 -46.24,-68.781 -139.6,-87.07 -208.37,-40.828 -58.08,39.059 -80.13,111.746 -57.81,174.758 4.12,11.649 9.78,22.922 16.98,33.621" /><path
         id="path504"
         style="fill:#17282f;fill-opacity:1;fill-rule:nonzero;stroke:none"
         d="m 2755.04,1133.281 4.15,-2.789 c 28.01,41.656 73.88,64.149 120.62,64.149 27.85,0 55.97,-7.981 80.82,-24.692 3.95,-2.648 7.72,-5.508 11.5,-8.488 l 3.1,3.918 -3.19,-3.848 c 34.34,-28.34 52.75,-69.922 52.75,-112.179 -0.01,-27.86 -7.99,-55.973 -24.7,-80.832 -28.01,-41.661 -73.88,-64.149 -120.62,-64.149 -27.85,0 -55.97,7.981 -80.81,24.68 -41.68,28.019 -64.15,73.949 -64.16,120.687 0,16.231 2.72,32.551 8.28,48.254 3.97,11.25 9.44,22.137 16.41,32.5 l -4.15,2.789 -4.15,2.789 c -7.42,-11.039 -13.28,-22.691 -17.54,-34.75 -5.95,-16.781 -8.85,-34.23 -8.85,-51.582 0,-49.918 24.04,-99.039 68.58,-128.988 26.52,-17.828 56.63,-26.391 86.39,-26.379 49.92,-0.012 98.99,24.051 128.92,68.57 17.84,26.539 26.4,56.649 26.4,86.411 0,45.148 -19.67,89.589 -56.38,119.89 l -0.09,0.067 c -3.87,3.05 -7.85,6.082 -12.12,8.953 -26.52,17.828 -56.63,26.386 -86.39,26.379 -49.92,0.01 -98.98,-24.051 -128.92,-68.571 l 4.15,-2.789" /><path
         id="path506"
         style="fill:#17282f;fill-opacity:1;fill-rule:nonzero;stroke:none"
         d="m 2593.41,977.539 186.03,139.051 29.87,-39.82 -186.03,-139.051 -29.87,39.82" /><path
         id="path508"
         style="fill:#17282f;fill-opacity:1;fill-rule:nonzero;stroke:none"
         d="m 2593.41,977.539 2.99,-4 182.03,136.063 23.88,-31.821 -178.02,-133.07 -26.88,35.828 -4,-3 2.99,-4 -2.99,4 -4,-3 29.87,-39.82 c 1.66,-2.207 4.79,-2.66 7,-1.008 l 186.03,139.051 c 1.07,0.797 1.76,1.976 1.95,3.297 0.19,1.32 -0.14,2.64 -0.95,3.711 l -29.87,39.82 c -1.66,2.211 -4.79,2.66 -7,1.012 L 2590.41,981.551 c -1.07,-0.801 -1.76,-1.981 -1.95,-3.301 -0.19,-1.32 0.14,-2.641 0.95,-3.711 l 4,3" /><path
         id="path510"
         style="fill:#ffffff;fill-opacity:1;fill-rule:nonzero;stroke:none"
         d="m 2574.12,979.641 51.06,38.3 45.38,-60.492 -51.06,-38.308 c -16.7,-12.532 -40.41,-9.153 -52.93,7.558 -12.54,16.699 -9.16,40.403 7.55,52.942" /><path
         id="path512"
         style="fill:#17282f;fill-opacity:1;fill-rule:nonzero;stroke:none"
         d="m 2574.12,979.641 3,-4 47.06,35.3 39.38,-52.492 -47.06,-35.308 c -5.92,-4.43 -12.8,-6.559 -19.66,-6.559 -10,0 -19.82,4.52 -26.27,13.117 -4.44,5.922 -6.57,12.801 -6.58,19.66 0.01,9.993 4.53,19.821 13.13,26.282 l -3,4 -3,4 c -11.21,-8.411 -17.13,-21.282 -17.13,-34.282 0,-8.929 2.8,-17.98 8.58,-25.66 8.4,-11.199 21.27,-17.129 34.27,-17.117 8.93,-0.012 17.97,2.789 25.66,8.559 l 51.06,38.308 c 1.06,0.793 1.77,1.992 1.95,3.301 0.19,1.301 -0.16,2.648 -0.95,3.699 l -45.38,60.492 c -1.66,2.207 -4.79,2.661 -7,1 l -51.06,-38.3 3,-4" /><path
         id="path514"
         style="fill:#ffffff;fill-opacity:1;fill-rule:nonzero;stroke:none"
         d="m 2833.56,1073.77 c 6.32,28.671 -11.8,57.05 -40.48,63.371 -28.67,6.328 -57.04,-11.801 -63.37,-40.469 -6.32,-28.68 11.8,-57.051 40.48,-63.371 28.67,-6.332 57.04,11.801 63.37,40.469" /><path
         id="path516"
         style="fill:#17282f;fill-opacity:1;fill-rule:nonzero;stroke:none"
         d="m 2833.56,1073.77 4.88,-1.079 c 0.93,4.207 1.38,8.43 1.38,12.579 0,26.718 -18.51,50.761 -45.66,56.75 -4.21,0.929 -8.43,1.378 -12.58,1.378 -26.72,0 -50.75,-18.5 -56.75,-45.648 -0.93,-4.211 -1.37,-8.43 -1.37,-12.578 -0.01,-26.723 18.5,-50.762 45.65,-56.75 4.21,-0.934 8.43,-1.383 12.58,-1.383 26.72,0 50.75,18.512 56.75,45.652 l -4.88,1.079 -4.89,1.082 c -4.94,-22.481 -24.89,-37.813 -46.98,-37.813 -3.43,0 -6.92,0.371 -10.42,1.141 -22.49,4.949 -37.81,24.89 -37.81,46.992 0,3.43 0.37,6.918 1.14,10.418 4.94,22.492 24.89,37.808 46.98,37.808 3.43,0 6.92,-0.367 10.43,-1.136 22.48,-4.953 37.8,-24.903 37.81,-46.992 0,-3.43 -0.37,-6.918 -1.15,-10.418 l 4.89,-1.082" /><path
         id="path518"
         style="fill:#17282f;fill-opacity:1;fill-rule:nonzero;stroke:none"
         d="m 2932.23,837.7617 27.56,190.8283 40.92,-5.84 -27.56,-190.8281 -40.92,5.8398" /><path
         id="path520"
         style="fill:#17282f;fill-opacity:1;fill-rule:nonzero;stroke:none"
         d="m 2932.23,837.7617 4.95,-0.7226 26.84,185.8909 31.02,-4.43 -26.13,-180.9297 -35.97,5.1289 -0.71,-4.9375 4.95,-0.7226 -4.95,0.7226 -0.7,-4.9531 40.91,-5.8398 c 2.73,-0.3868 5.26,1.5 5.66,4.2304 l 27.55,190.8318 c 0.2,1.321 -0.14,2.641 -0.94,3.707 -0.8,1.071 -1.98,1.774 -3.3,1.961 l -40.92,5.84 c -2.73,0.391 -5.26,-1.508 -5.65,-4.238 l -27.55,-190.8322 c -0.2,-1.3204 0.14,-2.6368 0.94,-3.7071 0.8,-1.0703 1.97,-1.7695 3.3,-1.9531 l 0.7,4.9531" /><path
         id="path522"
         style="fill:#ffffff;fill-opacity:1;fill-rule:nonzero;stroke:none"
         d="m 2919.68,827.6602 7.48,52.4608 62.15,-8.859 -7.48,-52.4729 c -2.44,-17.1602 -18.34,-29.0899 -35.5,-26.6407 -17.16,2.4414 -29.1,18.3438 -26.65,35.5118" /><path
         id="path524"
         style="fill:#17282f;fill-opacity:1;fill-rule:nonzero;stroke:none"
         d="m 2919.68,827.6602 4.95,-0.711 6.77,47.5118 52.26,-7.441 -6.78,-47.52 c -1.86,-13.1602 -13.17,-22.668 -26.07,-22.668 -1.25,0 -2.5,0.0899 -3.77,0.2696 -13.17,1.8593 -22.68,13.1797 -22.68,26.0898 0,1.2383 0.09,2.5 0.27,3.7578 l -4.95,0.711 -4.95,0.6992 c -0.25,-1.7305 -0.37,-3.4571 -0.37,-5.168 0,-17.8516 13.11,-33.4023 31.27,-35.9922 1.73,-0.25 3.46,-0.3672 5.18,-0.3672 17.84,0 33.38,13.1094 35.97,31.25 l 7.48,52.477 c 0.19,1.3 -0.16,2.652 -0.95,3.703 -0.79,1.058 -1.99,1.769 -3.29,1.949 l -62.15,8.859 c -2.74,0.391 -5.27,-1.511 -5.66,-4.25 l -7.48,-52.4606 4.95,-0.6992" /><path
         id="path526"
         style="fill:#ffffff;fill-opacity:1;fill-rule:nonzero;stroke:none"
         d="m 3016.69,1035.23 c -13.12,20.532 -40.42,26.551 -60.96,13.418 -20.54,-13.117 -26.56,-40.418 -13.43,-60.949 13.12,-20.551 40.42,-26.57 60.96,-13.437 20.54,13.117 26.56,40.418 13.43,60.968" /><path
         id="path528"
         style="fill:#17282f;fill-opacity:1;fill-rule:nonzero;stroke:none"
         d="m 3016.69,1035.23 4.22,2.692 c -9.38,14.66 -25.26,22.687 -41.46,22.68 -9.05,0 -18.23,-2.5 -26.41,-7.731 -14.67,-9.371 -22.7,-25.262 -22.69,-41.461 0,-9.039 2.51,-18.23 7.73,-26.41 9.38,-14.66 25.26,-22.699 41.46,-22.691 9.05,0 18.23,2.511 26.41,7.742 14.67,9.371 22.7,25.25 22.69,41.449 0,9.051 -2.51,18.238 -7.73,26.422 l -4.22,-2.692 -4.21,-2.699 c 4.18,-6.543 6.16,-13.812 6.16,-21.031 -0.01,-12.93 -6.38,-25.559 -18.07,-33.031 -6.54,-4.18 -13.82,-6.16 -21.03,-6.16 -12.93,0.011 -25.56,6.382 -33.03,18.082 -4.18,6.539 -6.16,13.808 -6.16,21.019 0.01,12.93 6.38,25.559 18.07,33.031 6.54,4.18 13.82,6.161 21.03,6.161 12.93,0 25.56,-6.372 33.03,-18.071 l 4.21,2.699" /><path
         id="path530"
         style="fill:#17282f;fill-opacity:1;fill-rule:nonzero;stroke:none"
         d="m 2748.12,863.1602 123.95,196.4098 42.16,-26.488 -123.95,-196.4218 -42.16,26.5" /><path
         id="path532"
         style="fill:#17282f;fill-opacity:1;fill-rule:nonzero;stroke:none"
         d="m 2748.12,863.1602 4.23,-2.668 121.29,192.1878 33.68,-21.168 -118.61,-187.9612 -37.93,23.8402 -2.66,-4.2308 4.23,-2.668 -4.23,2.668 -2.66,-4.2383 42.16,-26.4922 c 2.33,-1.4688 5.41,-0.7695 6.88,1.5625 l 123.95,196.4178 c 0.72,1.129 0.95,2.469 0.65,3.781 -0.29,1.301 -1.08,2.411 -2.21,3.118 l -42.16,26.492 c -2.33,1.469 -5.41,0.781 -6.89,-1.563 L 2743.89,865.82 c -0.71,-1.1286 -0.94,-2.4684 -0.64,-3.7692 0.29,-1.3008 1.08,-2.4219 2.21,-3.1289 l 2.66,4.2383" /><path
         id="path534"
         style="fill:#ffffff;fill-opacity:1;fill-rule:nonzero;stroke:none"
         d="m 2729.36,858.1992 33.97,54.0628 64.03,-40.262 -33.97,-54.0391 c -11.11,-17.6796 -34.46,-23 -52.14,-11.8789 -17.68,11.1094 -23,34.4493 -11.89,52.1172" /><path
         id="path536"
         style="fill:#17282f;fill-opacity:1;fill-rule:nonzero;stroke:none"
         d="m 2729.36,858.1992 4.24,-2.6601 31.3,49.8199 55.57,-34.929 -31.31,-49.8089 c -6.24,-9.9219 -16.89,-15.3398 -27.82,-15.3516 -5.97,0 -11.99,1.6211 -17.43,5.0391 -9.92,6.2422 -15.34,16.8906 -15.35,27.8125 0,5.9687 1.62,11.9805 5.04,17.418 l -4.24,2.6601 -4.23,2.6719 c -4.44,-7.0703 -6.57,-14.9727 -6.57,-22.75 -0.01,-14.2188 7.1,-28.1523 20.03,-36.2813 7.07,-4.4375 14.97,-6.5703 22.75,-6.5703 14.22,-0.008 28.15,7.1016 36.28,20.0313 l 33.97,54.0392 c 1.47,2.34 0.77,5.43 -1.57,6.898 l -64.03,40.254 c -1.11,0.699 -2.49,0.93 -3.77,0.637 -1.28,-0.289 -2.42,-1.098 -3.12,-2.207 l -33.97,-54.0626 4.23,-2.6602" /><path
         id="path538"
         style="fill:#ffffff;fill-opacity:1;fill-rule:nonzero;stroke:none"
         d="m 2937.93,1038.961 c -4.35,29.031 -31.43,49.039 -60.47,44.68 -29.04,-4.352 -49.04,-31.43 -44.69,-60.469 4.36,-29.043 31.44,-49.051 60.47,-44.684 29.04,4.352 49.05,31.422 44.69,60.473" /><path
         id="path540"
         style="fill:#17282f;fill-opacity:1;fill-rule:nonzero;stroke:none"
         d="m 2937.93,1038.961 4.95,0.738 c -4.34,28.84 -29.13,49.543 -57.46,49.543 -2.87,0 -5.78,-0.211 -8.7,-0.652 -28.85,-4.34 -49.54,-29.129 -49.54,-57.461 0,-2.867 0.21,-5.777 0.65,-8.699 4.34,-28.84 29.12,-49.539 57.45,-49.539 2.87,0 5.78,0.211 8.71,0.648 28.84,4.34 49.54,29.121 49.54,57.461 0,2.871 -0.21,5.781 -0.65,8.699 l -4.95,-0.738 -4.94,-0.75 c 0.36,-2.43 0.54,-4.84 0.54,-7.211 0,-23.43 -17.14,-44 -41.03,-47.57 -2.43,-0.36 -4.84,-0.539 -7.22,-0.539 -23.42,0 -43.99,17.14 -47.56,41.031 -0.37,2.418 -0.54,4.828 -0.54,7.207 -0.01,23.422 17.14,44 41.02,47.57 2.43,0.36 4.84,0.543 7.22,0.543 23.42,0 44,-17.152 47.57,-41.031 l 4.94,0.75" /><path
         id="path542"
         style="fill:#ffffff;fill-opacity:1;fill-rule:nonzero;stroke:none"
         d="m 2796.68,1722.672 c -24.07,-109.184 -132.1,-178.184 -241.28,-154.102 -109.18,24.071 -178.17,132.09 -154.1,241.27 24.07,109.17 132.1,178.17 241.28,154.1 109.18,-24.08 178.17,-132.09 154.1,-241.268" /><path
         id="path544"
         style="fill:#17282f;fill-opacity:1;fill-rule:nonzero;stroke:none"
         d="m 2796.68,1722.672 -4.89,1.066 c -20.31,-92.156 -101.99,-154.957 -192.61,-154.968 -14.08,0 -28.37,1.519 -42.7,4.679 -92.17,20.313 -154.97,101.992 -154.97,192.611 0,14.08 1.51,28.37 4.67,42.7 20.31,92.16 102,154.97 192.62,154.97 14.08,0 28.38,-1.52 42.7,-4.68 92.17,-20.31 154.97,-101.98 154.97,-192.6 0,-14.079 -1.52,-28.38 -4.68,-42.712 l 4.89,-1.066 4.88,-1.082 c 3.32,15.039 4.91,30.058 4.91,44.86 0,95.25 -65.98,181.01 -162.81,202.37 -15.04,3.32 -30.06,4.91 -44.86,4.91 -95.25,0 -181.02,-65.99 -202.38,-162.82 -3.32,-15.03 -4.91,-30.06 -4.91,-44.85 0,-95.251 65.98,-181.021 162.82,-202.38 15.03,-3.309 30.05,-4.91 44.85,-4.91 95.25,0 181.02,65.992 202.38,162.82 l -4.88,1.082" /><path
         id="path546"
         style="fill:#17282f;fill-opacity:1;fill-rule:nonzero;stroke:none"
         d="m 2694.79,1745.129 c -11.66,-52.91 -64.01,-86.348 -116.92,-74.68 -52.91,11.66 -86.35,64.012 -74.68,116.921 11.67,52.91 64.01,86.35 116.92,74.68 52.92,-11.66 86.35,-64.01 74.68,-116.921" /><path
         id="path548"
         style="fill:#17282f;fill-opacity:1;fill-rule:nonzero;stroke:none"
         d="m 2694.79,1745.129 -4.88,1.07 c -9.57,-43.457 -48.1,-73.07 -90.82,-73.07 -6.64,0 -13.38,0.711 -20.14,2.203 -43.47,9.566 -73.08,48.098 -73.08,90.818 0,6.64 0.71,13.39 2.2,20.15 9.57,43.46 48.1,73.07 90.82,73.08 6.64,0 13.39,-0.72 20.15,-2.21 43.46,-9.57 73.07,-48.1 73.08,-90.82 0,-6.639 -0.72,-13.381 -2.21,-20.151 l 4.88,-1.07 4.89,-1.078 c 1.64,7.469 2.44,14.941 2.44,22.299 0,47.35 -32.8,89.97 -80.93,100.58 -7.47,1.65 -14.94,2.45 -22.3,2.45 -47.34,0 -89.96,-32.8 -100.58,-80.93 -1.65,-7.47 -2.44,-14.94 -2.44,-22.3 0,-47.349 32.79,-89.97 80.92,-100.58 7.47,-1.648 14.94,-2.441 22.3,-2.441 47.35,0 89.96,32.793 100.59,80.922 l -4.89,1.078" /><path
         id="path550"
         style="fill:#b3b3b3;fill-opacity:1;fill-rule:nonzero;stroke:none"
         d="m 2513.72,2492.24 c 0,-179.53 -145.54,-325.07 -325.07,-325.07 -179.54,0 -325.07,145.54 -325.07,325.07 0,179.53 145.53,325.07 325.07,325.07 179.53,0 325.07,-145.54 325.07,-325.07" /><path
         id="path552"
         style="fill:#17282f;fill-opacity:1;fill-rule:nonzero;stroke:none"
         d="m 2513.72,2492.24 h -5 c 0,-88.4 -35.82,-168.39 -93.75,-226.33 -57.94,-57.92 -137.92,-93.74 -226.32,-93.74 -88.41,0 -168.39,35.82 -226.33,93.74 -57.93,57.94 -93.74,137.93 -93.74,226.33 0,88.4 35.81,168.38 93.74,226.32 57.94,57.93 137.92,93.74 226.33,93.75 88.4,-0.01 168.38,-35.82 226.32,-93.75 57.93,-57.94 93.75,-137.92 93.75,-226.32 h 5 5 c 0,182.29 -147.78,330.06 -330.07,330.07 -182.3,-0.01 -330.07,-147.78 -330.07,-330.07 0,-182.3 147.77,-330.07 330.07,-330.07 182.29,0 330.06,147.77 330.07,330.07 h -5" /><path
         id="path554"
         style="fill:#ffffff;fill-opacity:1;fill-rule:nonzero;stroke:none"
         d="m 2653.41,2275.76 c 81.28,101.72 129.99,230.6 129.99,370.92 0,328.47 -266.28,594.75 -594.75,594.75 -328.48,0 -594.755,-266.28 -594.755,-594.75 0,-140.32 48.71,-269.2 129.995,-370.92 h 929.52" /><path
         id="path556"
         style="fill:#17282f;fill-opacity:1;fill-rule:nonzero;stroke:none"
         d="m 2653.41,2275.76 3.9,-3.12 c 81.96,102.56 131.09,232.55 131.09,374.04 -0.01,331.24 -268.52,599.75 -599.75,599.75 -331.24,0 -599.752,-268.51 -599.755,-599.75 0,-141.49 49.128,-271.48 131.085,-374.04 0.95,-1.18 2.39,-1.88 3.91,-1.88 h 929.52 c 1.51,0 2.95,0.7 3.9,1.88 l -3.9,3.12 v 5 h -929.52 v -5 l 3.91,3.12 c -80.612,100.88 -128.902,228.64 -128.905,367.8 0,162.87 66,310.28 172.735,417.02 106.74,106.73 254.14,172.73 417.02,172.73 162.87,0 310.27,-66 417.01,-172.73 106.73,-106.74 172.73,-254.15 172.74,-417.02 -0.01,-139.16 -48.3,-266.92 -128.9,-367.8 l 3.91,-3.12 v 5 -5" /><path
         id="path558"
         style="fill:#b3b3b3;fill-opacity:1;fill-rule:nonzero;stroke:none"
         d="m 2552.45,2444.37 h -742.71 c -45.16,0 -81.76,36.61 -81.76,81.76 v 263.25 c 0,45.15 36.6,81.76 81.76,81.76 h 742.71 c 45.16,0 81.77,-36.61 81.77,-81.76 v -263.25 c 0,-45.15 -36.61,-81.76 -81.77,-81.76" /><path
         id="path560"
         style="fill:#17282f;fill-opacity:1;fill-rule:nonzero;stroke:none"
         d="m 2552.45,2444.37 v 5 h -742.71 c -21.21,0 -40.37,8.58 -54.28,22.48 -13.9,13.91 -22.48,33.07 -22.48,54.28 v 263.25 c 0,21.21 8.58,40.37 22.48,54.28 13.91,13.9 33.07,22.48 54.28,22.48 h 742.71 c 21.21,0 40.37,-8.58 54.28,-22.48 13.9,-13.91 22.48,-33.07 22.49,-54.28 v -263.25 c -0.01,-21.21 -8.59,-40.37 -22.49,-54.28 -13.91,-13.9 -33.07,-22.48 -54.28,-22.48 v -5 -5 c 47.92,0 86.76,38.84 86.77,86.76 v 263.25 c -0.01,47.92 -38.85,86.76 -86.77,86.76 h -742.71 c -47.92,0 -86.76,-38.84 -86.76,-86.76 v -263.25 c 0,-47.92 38.84,-86.76 86.76,-86.76 h 742.71 v 5" /><path
         id="path562"
         style="fill:#17282f;fill-opacity:1;fill-rule:nonzero;stroke:none"
         d="m 1849.54,2666.61 c 8.28,23.11 23.52,43.01 43.19,57.09 19.68,14.08 43.61,22.33 69.71,22.34 24.91,-0.01 47.85,-7.53 67.01,-20.47 19.15,-12.93 34.39,-31.29 43.47,-52.77 5.38,-12.72 20.05,-18.66 32.76,-13.28 12.72,5.37 18.67,20.04 13.29,32.76 -12.92,30.52 -34.42,56.41 -61.53,74.72 -27.08,18.32 -59.9,29.05 -95,29.04 -36.77,0.01 -71.02,-11.76 -98.82,-31.69 -27.82,-19.92 -49.36,-48.01 -61.14,-80.86 -4.66,-13 2.09,-27.31 15.09,-31.97 13,-4.66 27.31,2.1 31.97,15.09" /><path
         id="path564"
         style="fill:#17282f;fill-opacity:1;fill-rule:nonzero;stroke:none"
         d="m 2297.39,2666.61 c 8.28,23.11 23.52,43.01 43.19,57.09 19.68,14.08 43.62,22.33 69.71,22.34 24.92,-0.01 47.85,-7.53 67.01,-20.47 19.15,-12.93 34.39,-31.29 43.47,-52.77 5.38,-12.72 20.05,-18.66 32.77,-13.28 12.71,5.37 18.66,20.04 13.28,32.76 -12.91,30.52 -34.42,56.41 -61.52,74.72 -27.09,18.32 -59.91,29.05 -95.01,29.04 -36.77,0.01 -71.02,-11.76 -98.82,-31.69 -27.82,-19.92 -49.36,-48.01 -61.14,-80.86 -4.66,-13 2.1,-27.31 15.09,-31.97 13,-4.66 27.31,2.1 31.97,15.09" /><path
         id="path566"
         style="fill:#ffffff;fill-opacity:1;fill-rule:nonzero;stroke:none"
         d="m 2110.15,2576.09 c 5.19,-40.42 39.65,-71.68 81.48,-71.68 41.83,0 76.3,31.26 81.48,71.68 h -162.96" /><path
         id="path568"
         style="fill:#17282f;fill-opacity:1;fill-rule:nonzero;stroke:none"
         d="m 2110.15,2576.09 -4.96,-0.64 c 5.51,-42.89 42.06,-76.04 86.44,-76.04 44.38,0.01 80.94,33.15 86.44,76.04 0.18,1.42 -0.26,2.87 -1.21,3.94 -0.94,1.07 -2.32,1.7 -3.75,1.7 h -162.96 c -1.43,0 -2.81,-0.63 -3.75,-1.7 -0.94,-1.07 -1.39,-2.52 -1.21,-3.94 l 4.96,0.64 v -5 h 162.96 v 5 l -4.96,0.63 c -4.87,-37.95 -37.24,-67.32 -76.52,-67.31 -39.28,-0.01 -71.65,29.36 -76.52,67.31 l -4.96,-0.63 v -5 5" /><path
         id="path570"
         style="fill:#17282f;fill-opacity:1;fill-rule:nonzero;stroke:none"
         d="m 2958.13,2542.31 v 0 c -34.38,0 -62.25,27.87 -62.25,62.24 v 141.48 c 0,34.37 27.87,62.24 62.25,62.24 34.38,0 62.25,-27.87 62.25,-62.24 v -141.48 c 0,-34.37 -27.87,-62.24 -62.25,-62.24" /><path
         id="path572"
         style="fill:#17282f;fill-opacity:1;fill-rule:nonzero;stroke:none"
         d="m 2958.13,2542.31 v 5 c -15.82,0 -30.1,6.4 -40.48,16.76 -10.37,10.38 -16.77,24.66 -16.77,40.48 v 141.48 c 0,15.82 6.4,30.1 16.77,40.47 10.38,10.37 24.66,16.77 40.48,16.77 15.82,0 30.1,-6.4 40.48,-16.77 10.37,-10.37 16.77,-24.65 16.77,-40.47 v -141.48 c 0,-15.82 -6.4,-30.1 -16.77,-40.48 -10.38,-10.36 -24.66,-16.76 -40.48,-16.76 v -5 -5 c 37.14,0 67.25,30.1 67.25,67.24 v 141.48 c 0,37.14 -30.11,67.24 -67.25,67.24 -37.14,0 -67.24,-30.1 -67.25,-67.24 v -141.48 c 0.01,-37.14 30.11,-67.24 67.25,-67.24 v 5" /><path
         id="path574"
         style="fill:#17282f;fill-opacity:1;fill-rule:nonzero;stroke:none"
         d="m 1401.961,2542.31 v 0 c -34.375,0 -62.246,27.87 -62.246,62.24 v 141.48 c 0,34.37 27.871,62.24 62.246,62.24 34.379,0 62.25,-27.87 62.25,-62.24 v -141.48 c 0,-34.37 -27.871,-62.24 -62.25,-62.24" /><path
         id="path576"
         style="fill:#17282f;fill-opacity:1;fill-rule:nonzero;stroke:none"
         d="m 1401.961,2542.31 v 5 c -15.824,0 -30.102,6.4 -40.481,16.76 -10.367,10.38 -16.761,24.66 -16.765,40.48 v 141.48 c 0,15.82 6.398,30.1 16.765,40.47 10.379,10.37 24.657,16.77 40.481,16.77 15.824,0 30.105,-6.4 40.48,-16.77 10.372,-10.37 16.77,-24.65 16.77,-40.47 v -141.48 c 0,-15.82 -6.398,-30.1 -16.77,-40.48 -10.375,-10.36 -24.656,-16.76 -40.48,-16.76 v -5 -5 c 37.144,0 67.246,30.1 67.25,67.24 v 141.48 c 0,37.14 -30.106,67.24 -67.25,67.24 -37.141,0 -67.242,-30.1 -67.246,-67.24 v -141.48 c 0,-37.14 30.105,-67.24 67.246,-67.24 v 5" /><path
         id="path578"
         style="fill:#17282f;fill-opacity:1;fill-rule:nonzero;stroke:none"
         d="m 1543.352,3220.02 c -60.657,-89.72 -96.157,-198.35 -96.129,-314.63 v -102.74 c 0,-38.66 31.34,-70 70,-70 38.66,0 70,31.34 70,70 v 102.74 c 0.031,87.77 26.558,168.72 72.136,236.26 21.641,32.03 13.215,75.55 -18.82,97.19 -32.035,21.64 -75.547,13.21 -97.187,-18.82" /><path
         id="path580"
         style="fill:#17282f;fill-opacity:1;fill-rule:nonzero;stroke:none"
         d="m 2811.18,3200.02 c -47.39,70.27 -111.21,128.49 -186.03,169.19 -74.81,40.69 -160.71,63.83 -251.74,63.82 h -363.55 c -90.95,0.01 -176.77,-23.08 -251.53,-63.71 -74.775,-40.62 -138.568,-98.73 -185.978,-168.9 -10.821,-16.01 -6.61,-37.77 9.41,-48.59 16.015,-10.82 37.773,-6.61 48.593,9.41 41.125,60.87 96.555,111.36 161.385,146.57 64.85,35.22 139.02,55.21 218.12,55.22 h 363.55 c 79.17,-0.01 153.4,-20.04 218.29,-55.32 64.88,-35.28 120.33,-85.85 161.44,-146.83 10.81,-16.02 32.56,-20.26 48.59,-9.45 16.02,10.81 20.26,32.56 9.45,48.59" /><path
         id="path582"
         style="fill:#17282f;fill-opacity:1;fill-rule:nonzero;stroke:none"
         d="m 2936.04,2802.65 v 102.74 c 0.03,116.1 -35.36,224.57 -95.84,314.19 -21.61,32.06 -65.12,40.52 -97.17,18.91 -32.06,-21.61 -40.52,-65.12 -18.91,-97.17 45.45,-67.48 71.89,-148.3 71.92,-235.93 v -102.74 c 0,-38.66 31.34,-70 70,-70 38.66,0 70,31.34 70,70" /><path
         id="path584"
         style="fill:#ffffff;fill-opacity:1;fill-rule:nonzero;stroke:none"
         d="m 1566.805,2449.64 h -83.36 c -48.273,0 -87.406,39.13 -87.406,87.4 v 288.85 c 0,48.27 39.133,87.4 87.406,87.4 h 83.36 c 48.269,0 87.406,-39.13 87.406,-87.4 v -288.85 c 0,-48.27 -39.137,-87.4 -87.406,-87.4" /><path
         id="path586"
         style="fill:#17282f;fill-opacity:1;fill-rule:nonzero;stroke:none"
         d="m 1566.805,2449.64 v 5 h -83.36 c -22.769,0 -43.34,9.22 -58.269,24.13 -14.922,14.93 -24.137,35.5 -24.137,58.27 v 288.85 c 0,22.77 9.215,43.34 24.137,58.27 14.929,14.92 35.5,24.13 58.269,24.13 h 83.36 c 22.769,0 43.34,-9.21 58.269,-24.13 14.922,-14.93 24.137,-35.5 24.137,-58.27 v -288.85 c 0,-22.77 -9.215,-43.34 -24.137,-58.27 -14.929,-14.91 -35.5,-24.13 -58.269,-24.13 v -5 -5 c 51.035,0 92.402,41.37 92.406,92.4 v 288.85 c 0,51.03 -41.371,92.4 -92.406,92.4 h -83.36 c -51.035,0 -92.402,-41.37 -92.406,-92.4 v -288.85 c 0,-51.03 41.371,-92.4 92.406,-92.4 h 83.36 v 5" /><path
         id="path588"
         style="fill:#b3b3b3;fill-opacity:1;fill-rule:nonzero;stroke:none"
         d="m 1511.957,2449.64 h 26.34 v 463.65 h -26.34 v -463.65" /><path
         id="path590"
         style="fill:#17282f;fill-opacity:1;fill-rule:nonzero;stroke:none"
         d="m 1511.957,2449.64 v -5 h 26.34 c 1.316,0 2.605,0.53 3.539,1.46 0.93,0.94 1.461,2.22 1.461,3.54 v 463.65 c 0,1.32 -0.531,2.61 -1.461,3.54 -0.934,0.93 -2.223,1.46 -3.539,1.46 h -26.34 c -1.316,0 -2.605,-0.53 -3.535,-1.46 -0.934,-0.93 -1.465,-2.22 -1.465,-3.54 v -463.65 c 0,-1.32 0.531,-2.6 1.465,-3.54 0.93,-0.93 2.219,-1.46 3.535,-1.46 v 5 h 5 v 458.65 h 16.34 v -453.65 h -21.34 v -5 h 5 -5" /><path
         id="path592"
         style="fill:#ffffff;fill-opacity:1;fill-rule:nonzero;stroke:none"
         d="m 2884.01,2449.64 h -83.35 c -48.28,0 -87.41,39.13 -87.41,87.4 v 288.85 c 0,48.27 39.13,87.4 87.41,87.4 h 83.35 c 48.28,0 87.41,-39.13 87.41,-87.4 v -288.85 c 0,-48.27 -39.13,-87.4 -87.41,-87.4" /><path
         id="path594"
         style="fill:#17282f;fill-opacity:1;fill-rule:nonzero;stroke:none"
         d="m 2884.01,2449.64 v 5 h -83.35 c -22.78,0 -43.35,9.22 -58.27,24.13 -14.93,14.93 -24.14,35.5 -24.14,58.27 v 288.85 c 0,22.77 9.21,43.34 24.14,58.27 14.92,14.92 35.49,24.13 58.27,24.13 h 83.35 c 22.77,0 43.34,-9.21 58.27,-24.13 14.92,-14.93 24.14,-35.5 24.14,-58.27 v -288.85 c 0,-22.77 -9.22,-43.34 -24.14,-58.27 -14.93,-14.91 -35.5,-24.13 -58.27,-24.13 v -5 -5 c 51.04,0 92.41,41.37 92.41,92.4 v 288.85 c 0,51.03 -41.37,92.4 -92.41,92.4 h -83.35 c -51.04,0 -92.41,-41.37 -92.41,-92.4 v -288.85 c 0,-51.03 41.37,-92.4 92.41,-92.4 h 83.35 v 5" /><path
         id="path596"
         style="fill:#b3b3b3;fill-opacity:1;fill-rule:nonzero;stroke:none"
         d="m 2829.16,2449.64 h 26.35 v 463.65 h -26.35 v -463.65" /><path
         id="path598"
         style="fill:#17282f;fill-opacity:1;fill-rule:nonzero;stroke:none"
         d="m 2829.16,2449.64 v -5 h 26.35 c 1.31,0 2.6,0.53 3.53,1.46 0.93,0.94 1.47,2.22 1.47,3.54 v 463.65 c 0,1.32 -0.54,2.61 -1.47,3.54 -0.93,0.93 -2.22,1.46 -3.53,1.46 h -26.35 c -1.31,0 -2.6,-0.53 -3.53,-1.46 -0.93,-0.93 -1.47,-2.22 -1.47,-3.54 v -463.65 c 0,-1.32 0.54,-2.6 1.47,-3.54 0.93,-0.93 2.22,-1.46 3.53,-1.46 v 5 h 5 v 458.65 h 16.35 v -453.65 h -21.35 v -5 h 5 -5" /><path
         id="path600"
         style="fill:#b3b3b3;fill-opacity:1;fill-rule:nonzero;stroke:none"
         d="m 2190.72,2955.45 v 0 c 92.55,0 178.8,46.91 229.08,124.62 l 56.44,87.22 c -85.25,47.19 -183.26,74.14 -287.59,74.14 -107.53,0 -208.3,-28.68 -295.33,-78.59 L 1978,3057.42 c 51.78,-64.47 130.02,-101.97 212.72,-101.97" /><path
         id="path602"
         style="fill:#17282f;fill-opacity:1;fill-rule:nonzero;stroke:none"
         d="m 2190.72,2955.45 v -5 c 94.25,0 182.08,47.77 233.28,126.91 l 56.44,87.21 c 0.75,1.17 0.99,2.59 0.65,3.94 -0.34,1.35 -1.21,2.48 -2.43,3.16 -85.96,47.58 -184.82,74.76 -290.01,74.76 -108.42,0 -210.06,-28.92 -297.82,-79.25 -1.27,-0.73 -2.15,-1.97 -2.43,-3.41 -0.27,-1.44 0.1,-2.92 1.02,-4.06 l 84.68,-105.42 c 52.73,-65.65 132.4,-103.84 216.62,-103.84 v 5 5 c -81.18,0 -157.99,36.81 -208.83,100.1 l -84.67,105.42 -3.9,-3.13 2.49,-4.33 c 86.31,49.48 186.2,77.92 292.84,77.92 103.47,0 200.63,-26.72 285.17,-73.51 l 2.42,4.37 -4.2,2.72 -56.44,-87.22 c -49.36,-76.29 -134.02,-122.34 -224.88,-122.34 v -5" /><path
         id="path604"
         style="fill:#17282f;fill-opacity:1;fill-rule:nonzero;stroke:none"
         d="m 2204.77,2401.16 c 0,5.31 -4.3,9.6 -9.61,9.6 -5.3,0 -9.61,-4.29 -9.61,-9.6 0,-5.31 4.31,-9.61 9.61,-9.61 5.31,0 9.61,4.3 9.61,9.61" /><path
         id="path606"
         style="fill:#17282f;fill-opacity:1;fill-rule:nonzero;stroke:none"
         d="m 2204.77,2367.53 c 0,5.3 -4.3,9.61 -9.61,9.61 -5.3,0 -9.61,-4.31 -9.61,-9.61 0,-5.3 4.31,-9.61 9.61,-9.61 5.31,0 9.61,4.31 9.61,9.61" /><path
         id="path608"
         style="fill:#17282f;fill-opacity:1;fill-rule:nonzero;stroke:none"
         d="m 2166.74,2372.76 c 5.07,1.54 7.94,6.91 6.39,11.99 -1.56,5.08 -6.92,7.93 -12,6.38 -5.07,-1.55 -7.93,-6.92 -6.39,-11.99 1.56,-5.08 6.92,-7.94 12,-6.38" /><path
         id="path610"
         style="fill:#17282f;fill-opacity:1;fill-rule:nonzero;stroke:none"
         d="m 2226.79,2372.76 c 5.08,1.54 7.94,6.91 6.39,11.99 -1.55,5.08 -6.92,7.93 -12,6.38 -5.07,-1.55 -7.93,-6.92 -6.38,-11.99 1.55,-5.08 6.92,-7.94 11.99,-6.38" /><path
         id="path612"
         style="fill:#ffffff;fill-opacity:1;fill-rule:nonzero;stroke:none"
         d="m 2588.53,2025.96 c -127.36,28.65 -402.94,38.97 -402.94,38.97 -66.37,-2.11 -251.16,-10.35 -378.54,-39.1 -50.13,-11.31 -81.69,-61 -70.95,-111.26 l 117.87,-551.64 c 11.79,-55.188 60.55,-94.629 116.98,-94.629 h 214.64 24.95 214.65 c 56.43,0 105.19,39.441 116.98,94.629 l 117.87,551.64 c 10.79,50.48 -21.15,100.06 -71.51,111.39" /><path
         id="path614"
         style="fill:#17282f;fill-opacity:1;fill-rule:nonzero;stroke:none"
         d="m 2588.53,2025.96 1.1,4.88 c -64.25,14.44 -165.03,24.16 -249.97,30.34 -84.9,6.17 -153.84,8.75 -153.88,8.75 h -0.35 c -66.52,-2.13 -251.36,-10.33 -379.48,-39.22 -45.85,-10.36 -76.95,-51.16 -76.95,-96.38 0,-6.87 0.72,-13.83 2.21,-20.8 l 117.87,-551.639 c 12.29,-57.512 63.08,-98.59 121.87,-98.59 h 214.64 24.95 214.65 c 58.79,0 109.58,41.078 121.87,98.59 l 117.87,551.639 c 1.49,6.96 2.21,13.92 2.21,20.77 0,45.41 -31.44,86.17 -77.51,96.54 l -1.1,-4.88 -1.09,-4.88 c 41.44,-9.31 69.69,-46 69.7,-86.78 0,-6.16 -0.65,-12.41 -1.99,-18.68 l -117.87,-551.64 c -11.3,-52.89 -58.02,-90.679 -112.09,-90.679 h -214.65 -24.95 -214.64 c -54.07,0 -100.79,37.789 -112.09,90.679 l -117.87,551.64 c -1.34,6.28 -1.99,12.54 -1.99,18.71 0.01,40.64 27.96,77.34 69.15,86.62 126.65,28.61 311.39,36.89 377.6,38.99 l -0.16,4.99 -0.18,-4.99 c 0.04,-0.01 17.18,-0.65 44.98,-2.06 83.33,-4.22 262.31,-15.46 357.05,-36.8 l 1.09,4.88" /><path
         id="path616"
         style="fill:#b3b3b3;fill-opacity:1;fill-rule:nonzero;stroke:none"
         d="m 2530.24,2036.51 c -138.1,20.67 -344.65,28.42 -344.65,28.42 -53.95,-1.72 -186.17,-7.48 -302.18,-25.03 l 133.63,-771.599 h 168.55 24.95 169.59 l 150.11,768.209" /><path
         id="path618"
         style="fill:#17282f;fill-opacity:1;fill-rule:nonzero;stroke:none"
         d="m 2530.24,2036.51 0.74,4.94 c -138.57,20.74 -345.11,28.47 -345.2,28.48 h -0.35 c -54.06,-1.73 -186.38,-7.48 -302.77,-25.08 -1.32,-0.2 -2.52,-0.94 -3.31,-2.02 -0.78,-1.09 -1.09,-2.46 -0.87,-3.78 l 133.63,-771.601 c 0.42,-2.398 2.5,-4.148 4.93,-4.148 h 168.55 24.95 169.59 c 2.38,0 4.45,1.699 4.91,4.039 l 150.11,768.21 c 0.26,1.34 -0.03,2.72 -0.82,3.84 -0.8,1.12 -1.99,1.86 -3.35,2.06 l -0.74,-4.94 -4.91,0.95 -149.32,-764.159 h -165.47 -24.95 -164.34 l -132.91,767.459 -4.93,-0.86 0.75,-4.94 c 115.63,17.5 247.74,23.26 301.59,24.98 l -0.16,4.99 -0.18,-4.99 c 0.03,0 12.87,-0.49 34.37,-1.54 64.48,-3.14 206.51,-11.39 309.72,-26.84 l 0.74,4.95 -4.91,0.95 4.91,-0.95" /><path
         id="path620"
         style="fill:#ffffff;fill-opacity:1;fill-rule:nonzero;stroke:none"
         d="m 2304.83,1625.59 h -221.27 c -45.16,0 -81.77,36.601 -81.77,81.75 v 108.1 c 0,45.16 36.61,81.76 81.77,81.76 h 221.27 c 45.16,0 81.76,-36.6 81.76,-81.76 v -108.1 c 0,-45.149 -36.6,-81.75 -81.76,-81.75" /><path
         id="path622"
         style="fill:#17282f;fill-opacity:1;fill-rule:nonzero;stroke:none"
         d="m 2304.83,1625.59 v 5 h -221.27 c -21.22,0 -40.38,8.582 -54.28,22.48 -13.9,13.899 -22.48,33.059 -22.49,54.27 v 108.1 c 0.01,21.21 8.59,40.37 22.49,54.28 13.9,13.9 33.06,22.48 54.28,22.48 h 221.27 c 21.21,0 40.37,-8.58 54.28,-22.48 13.9,-13.91 22.48,-33.07 22.48,-54.28 v -108.1 c 0,-21.211 -8.58,-40.371 -22.48,-54.27 -13.91,-13.898 -33.07,-22.48 -54.28,-22.48 v -5 -5 c 47.92,0 86.76,38.84 86.76,86.75 v 108.1 c 0,47.92 -38.84,86.76 -86.76,86.76 h -221.27 c -47.92,0 -86.76,-38.84 -86.77,-86.76 v -108.1 c 0.01,-47.918 38.85,-86.75 86.77,-86.75 h 221.27 v 5" /><path
         id="path624"
         style="fill:#ffffff;fill-opacity:1;fill-rule:nonzero;stroke:none"
         d="m 2129.57,1785.29 h -62.29 v -62.278 h 62.29 v 62.278" /><path
         id="path626"
         style="fill:#17282f;fill-opacity:1;fill-rule:nonzero;stroke:none"
         d="m 2129.57,1785.29 v 5 h -62.29 c -1.31,0 -2.6,-0.53 -3.53,-1.46 -0.93,-0.93 -1.47,-2.22 -1.47,-3.54 v -62.278 c 0,-1.321 0.54,-2.614 1.47,-3.543 0.93,-0.93 2.22,-1.457 3.53,-1.457 h 62.29 c 1.32,0 2.61,0.527 3.54,1.457 0.93,0.929 1.46,2.222 1.46,3.543 v 62.278 c 0,1.32 -0.53,2.61 -1.46,3.54 -0.93,0.93 -2.22,1.46 -3.54,1.46 v -5 h -5 v -57.278 h -52.29 v 52.278 h 57.29 v 5 h -5 5" /><path
         id="path628"
         style="fill:#ffffff;fill-opacity:1;fill-rule:nonzero;stroke:none"
         d="m 2225.34,1785.29 h -62.29 v -62.278 h 62.29 v 62.278" /><path
         id="path630"
         style="fill:#17282f;fill-opacity:1;fill-rule:nonzero;stroke:none"
         d="m 2225.34,1785.29 v 5 h -62.29 c -1.32,0 -2.61,-0.53 -3.54,-1.46 -0.93,-0.93 -1.46,-2.22 -1.46,-3.54 v -62.278 c 0,-1.321 0.53,-2.614 1.46,-3.543 0.93,-0.93 2.22,-1.457 3.54,-1.457 h 62.29 c 1.32,0 2.6,0.527 3.53,1.457 0.94,0.929 1.47,2.222 1.47,3.543 v 62.278 c 0,1.32 -0.53,2.61 -1.47,3.54 -0.93,0.93 -2.21,1.46 -3.53,1.46 v -5 h -5 v -57.278 h -52.29 v 52.278 h 57.29 v 5 h -5 5" /><path
         id="path632"
         style="fill:#ffffff;fill-opacity:1;fill-rule:nonzero;stroke:none"
         d="m 2321.1,1785.29 h -62.28 v -62.278 h 62.28 v 62.278" /><path
         id="path634"
         style="fill:#17282f;fill-opacity:1;fill-rule:nonzero;stroke:none"
         d="m 2321.1,1785.29 v 5 h -62.28 c -1.32,0 -2.61,-0.53 -3.54,-1.46 -0.93,-0.93 -1.46,-2.22 -1.46,-3.54 v -62.278 c 0,-1.321 0.53,-2.614 1.46,-3.543 0.93,-0.93 2.22,-1.457 3.54,-1.457 h 62.28 c 1.32,0 2.61,0.527 3.54,1.457 0.93,0.929 1.46,2.222 1.46,3.543 v 62.278 c 0,1.32 -0.53,2.61 -1.46,3.54 -0.93,0.93 -2.22,1.46 -3.54,1.46 v -5 h -5 v -57.278 h -52.28 v 52.278 h 57.28 v 5 h -5 5" /><path
         id="path636"
         style="fill:#ffffff;fill-opacity:1;fill-rule:nonzero;stroke:none"
         d="M 2477.24,769.98828 H 1268.852 V 1392.711 c 0,27.609 22.382,50 50,50 H 2427.24 c 27.61,0 50,-22.391 50,-50 V 769.98828" /><path
         id="path638"
         style="fill:#17282f;fill-opacity:1;fill-rule:nonzero;stroke:none"
         d="m 2477.24,769.98828 v 5 H 1273.852 V 1392.711 c 0,12.437 5.027,23.66 13.175,31.82 8.161,8.149 19.379,13.168 31.825,13.18 H 2427.24 c 12.44,-0.012 23.66,-5.031 31.82,-13.18 8.15,-8.16 13.18,-19.383 13.18,-31.82 V 769.98828 h 5 v 5 -5 h 5 V 1392.711 c 0,30.379 -24.63,54.988 -55,55 H 1318.852 c -30.383,-0.012 -55,-24.621 -55,-55 V 769.98828 c 0,-1.3164 0.531,-2.59765 1.464,-3.52734 0.93,-0.94141 2.219,-1.47266 3.536,-1.47266 H 2477.24 c 1.32,0 2.6,0.53125 3.53,1.47266 0.94,0.92969 1.47,2.21094 1.47,3.52734 h -5" /><path
         id="path640"
         style="fill:#17282f;fill-opacity:1;fill-rule:nonzero;stroke:none"
         d="M 2477.24,1218.961 C 2325.4,1180.398 2169.64,1082.441 1879.28,944.41 1599.195,811.25 1370.051,813.4922 1268.852,823.8594 V 769.98828 H 2477.24 V 1218.961" /><path
         id="path642"
         style="fill:#17282f;fill-opacity:1;fill-rule:nonzero;stroke:none"
         d="m 2477.24,1218.961 -1.23,4.84 C 2322.96,1184.871 2167.3,1086.832 1877.13,948.922 1661.84,846.5703 1476.883,824.5391 1357.402,824.5391 c -35.41,0 -65.062,1.9414 -88.043,4.2929 -1.402,0.1485 -2.812,-0.3125 -3.859,-1.2617 -1.047,-0.9492 -1.648,-2.3008 -1.648,-3.7109 v -53.87112 c 0,-1.3164 0.531,-2.59765 1.464,-3.52734 0.93,-0.94141 2.219,-1.47266 3.536,-1.47266 H 2477.24 c 1.32,0 2.6,0.53125 3.53,1.47266 0.94,0.92969 1.47,2.21094 1.47,3.52734 V 1218.961 c 0,1.531 -0.72,3 -1.93,3.937 -1.21,0.954 -2.81,1.282 -4.3,0.903 l 1.23,-4.84 h -5 V 774.98828 H 1273.852 v 48.87112 h -5 l -0.512,-4.9805 c 23.297,-2.3789 53.289,-4.3398 89.062,-4.3398 120.696,0 307.215,22.2812 524.018,125.3519 290.56,138.168 446.42,236.039 597.05,274.218 l -1.23,4.852 h -5 5" /><path
         id="path644"
         style="fill:#ffffff;fill-opacity:1;fill-rule:nonzero;stroke:none"
         d="M 2477.24,769.98828 H 1268.852 V 807.3594 H 2477.24 v -37.37112" /><path
         id="path646"
         style="fill:#17282f;fill-opacity:1;fill-rule:nonzero;stroke:none"
         d="m 2477.24,769.98828 v 5 H 1273.852 V 802.3594 H 2472.24 v -32.37112 h 5 v 5 -5 h 5 v 37.37112 c 0,1.3203 -0.53,2.6094 -1.47,3.539 -0.93,0.9336 -2.21,1.461 -3.53,1.461 H 1268.852 c -1.317,0 -2.606,-0.5274 -3.536,-1.461 -0.933,-0.9296 -1.464,-2.2187 -1.464,-3.539 v -37.37112 c 0,-1.3164 0.531,-2.59765 1.464,-3.52734 0.93,-0.94141 2.219,-1.47266 3.536,-1.47266 H 2477.24 c 1.32,0 2.6,0.53125 3.53,1.47266 0.94,0.92969 1.47,2.21094 1.47,3.52734 h -5" /><path
         id="path648"
         style="fill:#ffffff;fill-opacity:1;fill-rule:nonzero;stroke:none"
         d="m 1935.33,1106.352 c 0,-34.403 -27.89,-62.293 -62.29,-62.293 -34.39,0 -62.29,27.89 -62.29,62.293 0,34.398 27.9,62.289 62.29,62.289 34.4,0 62.29,-27.891 62.29,-62.289" /><path
         id="path650"
         style="fill:#17282f;fill-opacity:1;fill-rule:nonzero;stroke:none"
         d="m 1935.33,1106.352 h -5 c 0,-15.832 -6.4,-30.122 -16.78,-40.512 -10.38,-10.371 -24.67,-16.77 -40.51,-16.781 -15.83,0.011 -30.12,6.41 -40.5,16.781 -10.38,10.39 -16.78,24.68 -16.79,40.512 0.01,15.839 6.41,30.128 16.79,40.507 10.38,10.379 24.67,16.782 40.5,16.782 15.84,0 30.13,-6.403 40.51,-16.782 10.38,-10.379 16.78,-24.668 16.78,-40.507 h 5 5 c 0,37.168 -30.12,67.289 -67.29,67.289 -37.16,0 -67.28,-30.121 -67.29,-67.289 0.01,-37.161 30.13,-67.282 67.29,-67.293 37.17,0.011 67.29,30.132 67.29,67.293 h -5" /></g></g></svg>
